<svg width="35" height="34" viewBox="0 0 35 34" fill="none" xmlns="http://www.w3.org/2000/svg">
<path d="M15.4078 0.072937C9.59277 0.613068 4.62747 4.0819 2.00098 8.99022L6.1302 16.1422L15.4078 0.072937Z" fill="#D37643"/>
<path d="M1.52412 9.95483C0.545225 12.1014 -0.00012207 14.4873 -0.00012207 17.0006C-0.00012207 20.097 0.827723 23.0002 2.2742 25.5007H10.4996L1.52412 9.95483Z" fill="#D37643"/>
<path d="M2.82843 26.3946C5.87351 30.9785 11.0833 34 16.9989 34C17.1354 34 17.2714 33.9983 17.407 33.9951L21.7952 26.3946H2.82843Z" fill="#D37643"/>
<path d="M18.4741 33.9371C24.3965 33.4281 29.4512 29.8828 32.0745 24.8651L27.8931 17.623L18.4741 33.9371Z" fill="#D37643"/>
<path d="M32.5469 23.8906C33.4818 21.7844 34.0013 19.4529 34.0013 17C34.0013 13.9036 33.1735 11.0004 31.7269 8.49997H23.6611L32.5469 23.8906Z" fill="#D37643"/>
<path d="M31.1701 7.60533H12.0921L16.4785 0.00782898C16.6515 0.00262157 16.8253 0 16.9996 0C22.9152 0 28.125 3.02146 31.1701 7.60533Z" fill="#D37643"/>
<path d="M23.098 22.1092H19.2461L15.9445 17.801L13.7971 19.5323V22.1092H10.7371V12.5265H13.7971V16.4186L18.4542 12.5265H22.4806L18.2529 15.9354L23.098 22.1092Z" fill="#D37643"/>
</svg>
