<svg width="175" height="162" viewBox="0 0 175 162" fill="none" xmlns="http://www.w3.org/2000/svg">
<path d="M3.8415 70.529L13.8332 69.8406L13.8668 69.7144L5.54349 64.144L6.03228 62.3103L16.1975 69.3536L15.675 71.3136L3.35271 72.3627L3.8415 70.529Z" fill="#D46E35"/>
<path d="M10.2514 52.135L20.7835 57.0827L20.037 58.6718L9.50488 53.7241L10.2514 52.135Z" fill="#D46E35"/>
<path d="M24.5254 50.048L14.9519 43.4333L19.099 37.4312L20.3424 38.2903L17.1934 42.848L20.1103 44.8634L23.043 40.6189L24.2817 41.4748L21.349 45.7193L24.28 47.7444L27.4678 43.1306L28.7112 43.9898L24.5254 50.048Z" fill="#D46E35"/>
<path d="M34.9475 36.789L24.7961 30.2491L26.1747 29.0205L33.8627 34.2396L33.9433 34.1678L29.708 25.8715L31.0739 24.6543L38.8335 29.8171L38.9141 29.7453L34.603 21.5091L35.9858 20.2767L41.3143 31.1148L39.9951 32.2904L32.368 27.4129L32.3001 27.4734L36.2709 35.6095L34.9475 36.789Z" fill="#D46E35"/>
<path d="M58.0627 21.0607L54.0645 10.1327L57.9598 8.70759C58.8099 8.39654 59.5709 8.29359 60.2426 8.39874C60.9143 8.50389 61.4872 8.77429 61.9612 9.20992C62.4339 9.642 62.7926 10.1924 63.0372 10.8612C63.2832 11.5335 63.3639 12.1897 63.2794 12.8296C63.1972 13.4647 62.9323 14.0416 62.4848 14.5603C62.0395 15.0741 61.3936 15.4859 60.5469 15.7956L57.8683 16.7756L57.3568 15.3776L59.8861 14.4523C60.4232 14.2558 60.8251 14.0038 61.0918 13.6965C61.3573 13.3857 61.509 13.0397 61.5471 12.6588C61.5852 12.2778 61.5287 11.881 61.3778 11.4683C61.2268 11.0557 61.0145 10.7179 60.7408 10.455C60.4672 10.1921 60.1282 10.0318 59.7239 9.97402C59.3231 9.91493 58.8488 9.98561 58.301 10.186L56.2307 10.9435L59.7115 20.4574L58.0627 21.0607Z" fill="#D46E35"/>
<path d="M82.2596 9.31181C82.4154 10.5444 82.3238 11.6327 81.985 12.5766C81.6457 13.5167 81.1135 14.275 80.3884 14.8516C79.6666 15.4239 78.8077 15.773 77.8119 15.8988C76.8122 16.0252 75.8898 15.9013 75.0445 15.527C74.2025 15.1486 73.5 14.5444 72.9369 13.7145C72.3739 12.8846 72.0147 11.8553 71.8594 10.6264C71.7036 9.3938 71.7953 8.30743 72.1346 7.36731C72.4735 6.42342 73.0038 5.66532 73.7256 5.09302C74.4507 4.51648 75.3131 4.16503 76.3127 4.03867C77.3086 3.91279 78.2275 4.03908 79.0695 4.41754C79.9147 4.79177 80.6189 5.39382 81.182 6.2237C81.7446 7.04983 82.1038 8.0792 82.2596 9.31181ZM80.5347 9.52984C80.4159 8.59035 80.1637 7.81853 79.7781 7.2144C79.3957 6.60603 78.9206 6.16974 78.3527 5.90554C77.7881 5.63711 77.175 5.54469 76.5136 5.6283C75.8485 5.71238 75.2759 5.95466 74.7958 6.35514C74.3152 6.75187 73.9636 7.29266 73.7409 7.97751C73.5215 8.65813 73.4712 9.46818 73.5899 10.4077C73.7087 11.3472 73.9592 12.1211 74.3416 12.7295C74.7272 13.3336 75.2023 13.7699 75.7669 14.0383C76.3311 14.303 76.9458 14.3933 77.6109 14.3092C78.2723 14.2256 78.8433 13.9855 79.3239 13.5887C79.8077 13.1878 80.1593 12.647 80.3787 11.9664C80.6014 11.2815 80.6534 10.4693 80.5347 9.52984Z" fill="#D46E35"/>
<path d="M90.5216 15.059L91.6747 3.47988L95.802 3.89093C96.6991 3.98027 97.4282 4.20895 97.9891 4.57696C98.5539 4.94535 98.9561 5.41745 99.1956 5.99327C99.4356 6.56532 99.5201 7.20754 99.4491 7.91992C99.3786 8.62854 99.1675 9.23752 98.8161 9.74686C98.4688 10.2528 97.9825 10.625 97.3573 10.8635C96.7359 11.1023 95.9767 11.1771 95.0796 11.0877L91.953 10.7763L92.1028 9.27241L95.0711 9.56802C95.6364 9.62433 96.1044 9.58909 96.4748 9.4623C96.849 9.33588 97.1345 9.1264 97.3311 8.83384C97.5277 8.54128 97.6476 8.17826 97.6908 7.7448C97.7343 7.30757 97.6872 6.92032 97.5495 6.58304C97.4156 6.24614 97.178 5.97505 96.8369 5.76977C96.4998 5.5611 96.0429 5.42805 95.4663 5.37062L93.2726 5.15214L92.2686 15.233L90.5216 15.059ZM96.7579 10.4041L99.0984 15.9132L97.1083 15.7149L94.8243 10.2115L96.7579 10.4041Z" fill="#D46E35"/>
<path d="M108.539 7.55056L109.002 6.11172L117.575 8.86781L117.113 10.3067L113.656 9.19552L110.557 18.8347L108.891 18.2991L111.99 8.65996L108.539 7.55056Z" fill="#D46E35"/>
<path d="M120.619 22.8993L126.362 12.779L132.637 16.3405L131.892 17.655L127.143 14.96L125.393 18.0435L129.692 20.4833L128.949 21.7928L124.65 19.3531L122.145 23.7659L120.619 22.8993Z" fill="#D46E35"/>
<path d="M144.432 33.1166C143.599 34.0386 142.714 34.679 141.778 35.0377C140.844 35.3937 139.922 35.4848 139.012 35.3112C138.107 35.1373 137.282 34.714 136.537 34.0412C135.79 33.3659 135.282 32.5858 135.014 31.701C134.752 30.8159 134.752 29.8893 135.014 28.9212C135.276 27.9531 135.822 27.0095 136.652 26.0902C137.485 25.1682 138.368 24.5292 139.302 24.1733C140.238 23.8145 141.159 23.7221 142.064 23.896C142.974 24.0696 143.802 24.4941 144.55 25.1694C145.295 25.8422 145.799 26.6212 146.061 27.5062C146.329 28.3911 146.331 29.3175 146.07 30.2856C145.81 31.2509 145.264 32.1945 144.432 33.1166ZM143.141 31.9512C143.776 31.2484 144.197 30.5539 144.403 29.8675C144.615 29.1809 144.636 28.5362 144.465 27.9334C144.301 27.3303 143.971 26.8053 143.476 26.3585C142.979 25.9091 142.422 25.6331 141.805 25.5304C141.191 25.4248 140.551 25.511 139.887 25.7889C139.228 26.0664 138.581 26.5566 137.946 27.2594C137.312 27.9622 136.888 28.6569 136.677 29.3435C136.47 30.0298 136.449 30.6745 136.614 31.2776C136.781 31.8779 137.114 32.4027 137.611 32.8521C138.106 33.2989 138.661 33.5751 139.275 33.6807C139.894 33.7859 140.534 33.6997 141.193 33.4222C141.857 33.1443 142.507 32.654 143.141 31.9512Z" fill="#D46E35"/>
<path d="M145.449 43.152L154.934 36.4112L155.951 37.8423L147.698 43.7076L150.752 48.0055L149.52 48.8811L145.449 43.152Z" fill="#D46E35"/>
<path d="M164.528 52.0779L154.062 57.1646L153.294 55.5855L163.76 50.4988L164.528 52.0779Z" fill="#D46E35"/>
<path d="M165.541 72.6522C164.343 72.9802 163.252 73.0429 162.27 72.8404C161.292 72.637 160.466 72.2169 159.793 71.5803C159.125 70.9464 158.658 70.1453 158.393 69.1771C158.127 68.2053 158.12 67.2746 158.371 66.385C158.627 65.4981 159.126 64.7174 159.869 64.043C160.611 63.3687 161.579 62.868 162.774 62.5411C163.972 62.2131 165.061 62.1509 166.039 62.3543C167.022 62.5568 167.847 62.975 168.515 63.609C169.188 64.2456 169.658 65.0498 169.924 66.0217C170.189 66.9898 170.193 67.9174 169.937 68.8043C169.686 69.6939 169.189 70.4759 168.446 71.1502C167.708 71.8236 166.739 72.3243 165.541 72.6522ZM165.082 70.9753C165.995 70.7253 166.724 70.3669 167.268 69.9C167.816 69.4357 168.181 68.9038 168.363 68.3044C168.549 67.7075 168.554 67.0876 168.378 66.4446C168.201 65.7979 167.881 65.2651 167.416 64.8463C166.956 64.4264 166.371 64.1545 165.662 64.0305C164.957 63.9092 164.148 63.9736 163.234 64.2235C162.321 64.4735 161.59 64.8306 161.042 65.2948C160.498 65.7617 160.133 66.2936 159.947 66.8904C159.764 67.4863 159.761 68.1075 159.938 68.7542C160.114 69.3972 160.433 69.9286 160.893 70.3485C161.358 70.771 161.943 71.0429 162.648 71.1642C163.357 71.2882 164.169 71.2252 165.082 70.9753Z" fill="#D46E35"/>
<path d="M170.982 91.2703L160.99 91.9587L160.956 92.085L169.28 97.6554L168.791 99.4891L158.626 92.4457L159.148 90.4857L171.47 89.4366L170.982 91.2703Z" fill="#D46E35"/>
<path d="M164.572 109.664L154.04 104.717L154.786 103.128L165.318 108.075L164.572 109.664Z" fill="#D46E35"/>
<path d="M150.298 111.751L159.871 118.366L155.724 124.368L154.481 123.509L157.63 118.951L154.713 116.936L151.78 121.18L150.541 120.324L153.474 116.08L150.543 114.055L147.355 118.669L146.112 117.81L150.298 111.751Z" fill="#D46E35"/>
<path d="M139.876 125.01L150.027 131.55L148.648 132.779L140.96 127.56L140.88 127.632L145.115 135.928L143.749 137.145L135.99 131.982L135.909 132.054L140.22 140.29L138.837 141.523L133.509 130.685L134.828 129.509L142.455 134.386L142.523 134.326L138.552 126.19L139.876 125.01Z" fill="#D46E35"/>
<path d="M116.76 140.739L120.759 151.667L116.863 153.092C116.013 153.403 115.252 153.506 114.581 153.401C113.909 153.295 113.336 153.025 112.862 152.589C112.389 152.157 112.031 151.607 111.786 150.938C111.54 150.266 111.459 149.61 111.544 148.97C111.626 148.335 111.891 147.758 112.338 147.239C112.784 146.725 113.43 146.313 114.276 146.004L116.955 145.024L117.466 146.422L114.937 147.347C114.4 147.544 113.998 147.795 113.731 148.103C113.466 148.414 113.314 148.76 113.276 149.141C113.238 149.522 113.294 149.918 113.445 150.331C113.596 150.744 113.809 151.081 114.082 151.344C114.356 151.607 114.695 151.768 115.099 151.825C115.5 151.884 115.974 151.814 116.522 151.613L118.592 150.856L115.112 141.342L116.76 140.739Z" fill="#D46E35"/>
<path d="M92.5636 152.488C92.4078 151.255 92.4993 150.167 92.8381 149.223C93.1775 148.283 93.7097 147.524 94.4348 146.948C95.1566 146.375 96.0154 146.026 97.0113 145.9C98.0109 145.774 98.9333 145.898 99.7786 146.272C100.621 146.651 101.323 147.255 101.886 148.085C102.449 148.915 102.808 149.944 102.964 151.173C103.12 152.406 103.028 153.492 102.688 154.432C102.35 155.376 101.819 156.134 101.097 156.706C100.372 157.283 99.5101 157.634 98.5104 157.761C97.5146 157.887 96.5956 157.76 95.7537 157.382C94.9084 157.008 94.2042 156.405 93.6412 155.576C93.0786 154.749 92.7194 153.72 92.5636 152.488ZM94.2885 152.269C94.4072 153.209 94.6594 153.981 95.0451 154.585C95.4274 155.193 95.9025 155.63 96.4704 155.894C97.0351 156.162 97.6481 156.255 98.3095 156.171C98.9747 156.087 99.5473 155.845 100.027 155.444C100.508 155.047 100.86 154.507 101.082 153.822C101.302 153.141 101.352 152.331 101.233 151.392C101.114 150.452 100.864 149.678 100.482 149.07C100.096 148.466 99.6208 148.029 99.0562 147.761C98.492 147.496 97.8774 147.406 97.2122 147.49C96.5508 147.574 95.9798 147.814 95.4993 148.211C95.0154 148.612 94.6638 149.152 94.4444 149.833C94.2217 150.518 94.1697 151.33 94.2885 152.269Z" fill="#D46E35"/>
<path d="M84.3016 146.74L83.1484 158.319L79.0211 157.908C78.124 157.819 77.395 157.59 76.834 157.222C76.2692 156.854 75.8671 156.382 75.6275 155.806C75.3876 155.234 75.3031 154.592 75.374 153.879C75.4446 153.171 75.6556 152.562 76.007 152.052C76.3543 151.547 76.8406 151.174 77.4658 150.936C78.0872 150.697 78.8465 150.622 79.7435 150.712L82.8701 151.023L82.7203 152.527L79.7521 152.231C79.1867 152.175 78.7188 152.21 78.3483 152.337C77.9741 152.463 77.6887 152.673 77.4921 152.965C77.2954 153.258 77.1755 153.621 77.1324 154.055C77.0888 154.492 77.1359 154.879 77.2736 155.216C77.4075 155.553 77.6451 155.824 77.9863 156.03C78.3233 156.238 78.7802 156.371 79.3569 156.429L81.5506 156.647L82.5545 146.566L84.3016 146.74ZM78.0653 151.395L75.7247 145.886L77.7149 146.084L79.9989 151.588L78.0653 151.395Z" fill="#D46E35"/>
<path d="M66.2841 154.249L65.8216 155.688L57.248 152.932L57.7105 151.493L61.167 152.604L64.2656 142.965L65.9317 143.5L62.833 153.139L66.2841 154.249Z" fill="#D46E35"/>
<path d="M54.2046 138.9L48.4614 149.02L42.1856 145.459L42.9316 144.144L47.6804 146.839L49.4303 143.756L45.1312 141.316L45.8743 140.007L50.1734 142.446L52.6777 138.033L54.2046 138.9Z" fill="#D46E35"/>
<path d="M30.3916 128.683C31.2243 127.761 32.109 127.12 33.0455 126.762C33.9794 126.406 34.9014 126.314 35.8113 126.488C36.7159 126.662 37.5407 127.085 38.2857 127.758C39.0334 128.433 39.5411 129.214 39.8087 130.098C40.071 130.983 40.0712 131.91 39.8093 132.878C39.5475 133.846 39.0015 134.79 38.1713 135.709C37.3385 136.631 36.4552 137.27 35.5212 137.626C34.5847 137.985 33.6642 138.077 32.7596 137.903C31.8496 137.73 31.0208 137.305 30.273 136.63C29.5281 135.957 29.0245 135.178 28.7622 134.293C28.4946 133.408 28.4917 132.482 28.7535 131.514C29.0128 130.548 29.5588 129.605 30.3916 128.683ZM31.6819 129.848C31.0472 130.551 30.6266 131.245 30.4201 131.932C30.2083 132.618 30.1875 133.263 30.3576 133.866C30.5224 134.469 30.8522 134.994 31.3469 135.441C31.8445 135.89 32.4016 136.166 33.0183 136.269C33.6325 136.374 34.2718 136.288 34.9361 136.01C35.5952 135.733 36.2421 135.243 36.8768 134.54C37.5115 133.837 37.9347 133.142 38.1465 132.456C38.353 131.769 38.3738 131.125 38.209 130.522C38.0417 129.921 37.7093 129.397 37.2117 128.947C36.717 128.5 36.1625 128.224 35.5483 128.119C34.9288 128.013 34.2896 128.1 33.6305 128.377C32.9661 128.655 32.3166 129.145 31.6819 129.848Z" fill="#D46E35"/>
<path d="M29.3745 118.647L19.8894 125.388L18.8724 123.957L27.1255 118.092L24.0711 113.794L25.303 112.918L29.3745 118.647Z" fill="#D46E35"/>
<path d="M10.2956 109.721L20.7613 104.635L21.5288 106.214L11.0631 111.3L10.2956 109.721Z" fill="#D46E35"/>
<path d="M9.28212 89.1471C10.4805 88.8191 11.5708 88.7564 12.553 88.9589C13.5315 89.1623 14.3573 89.5824 15.0303 90.219C15.6986 90.8529 16.1652 91.654 16.4302 92.6222C16.6961 93.594 16.7034 94.5248 16.452 95.4143C16.196 96.3012 15.6968 97.0819 14.9546 97.7563C14.2123 98.4307 13.2438 98.9313 12.0491 99.2583C10.8508 99.5862 9.76231 99.6484 8.78375 99.445C7.80154 99.2425 6.97627 98.8243 6.30796 98.1903C5.635 97.5537 5.16554 96.7495 4.89959 95.7777C4.63463 94.8095 4.63017 93.8819 4.88621 92.995C5.13759 92.1054 5.63441 91.3235 6.37667 90.6491C7.11527 89.9757 8.08375 89.475 9.28212 89.1471ZM9.74104 90.8241C8.82765 91.074 8.09907 91.4324 7.5553 91.8994C7.00688 92.3636 6.6419 92.8955 6.46037 93.495C6.27418 94.0918 6.26907 94.7117 6.44504 95.3547C6.62201 96.0014 6.94256 96.5342 7.4067 96.953C7.86719 97.3729 8.45213 97.6448 9.16153 97.7688C9.86627 97.8901 10.6753 97.8258 11.5887 97.5758C12.5021 97.3258 13.233 96.9687 13.7814 96.5045C14.3252 96.0376 14.6902 95.5057 14.8764 94.9089C15.0589 94.3131 15.0617 93.6918 14.8847 93.0451C14.7087 92.4021 14.3905 91.8707 13.93 91.4508C13.4649 91.0283 12.8799 90.7564 12.1752 90.6351C11.4658 90.5111 10.6544 90.5741 9.74104 90.8241Z" fill="#D46E35"/>
</svg>
